<svg xmlns="http://www.w3.org/2000/svg" width="81" height="81" viewBox="0 0 81 81">
  <g id="add_pet" data-name="add pet" transform="translate(-118 -276)">
    <g id="Union_1" data-name="Union 1" transform="translate(118 276)" fill="#fff">
      <path d="M 42.00030136108398 80.5 L 38.99969863891602 80.5 C 35.92828750610352 80.5 33.04053497314453 79.30374145507813 30.86838912963867 77.13161468505859 C 28.69625473022461 74.95946502685547 27.5 72.07172393798828 27.5 69.00031280517578 L 27.5 54 L 27.5 53.5 L 27 53.5 L 11.99969959259033 53.5 C 8.928288459777832 53.5 6.040533542633057 52.30374526977539 3.868388891220093 50.13161087036133 C 1.696255564689636 47.95946502685547 0.5 45.07171249389648 0.5 42.00030136108398 L 0.5 38.99969863891602 C 0.5 35.92828750610352 1.696255564689636 33.04053497314453 3.868388891220093 30.86838912963867 C 6.040533542633057 28.69625473022461 8.928288459777832 27.5 11.99969959259033 27.5 L 27 27.5 L 27.5 27.5 L 27.5 27 L 27.5 11.99969959259033 C 27.5 8.928288459777832 28.69625473022461 6.040533542633057 30.86838912963867 3.868388891220093 C 33.04053497314453 1.696255564689636 35.92828750610352 0.5 38.99969863891602 0.5 L 42.00030136108398 0.5 C 45.07171249389648 0.5 47.95946502685547 1.696255564689636 50.13161087036133 3.868388891220093 C 52.30374526977539 6.040533542633057 53.5 8.928288459777832 53.5 11.99969959259033 L 53.5 27 L 53.5 27.5 L 54 27.5 L 69.00031280517578 27.5 C 72.07172393798828 27.5 74.95946502685547 28.69625473022461 77.13161468505859 30.86838912963867 C 79.30374145507813 33.04053497314453 80.5 35.92828750610352 80.5 38.99969863891602 L 80.5 42.00030136108398 C 80.5 45.07171249389648 79.30374145507813 47.95946502685547 77.13161468505859 50.13161087036133 C 74.95946502685547 52.30374526977539 72.07172393798828 53.5 69.00031280517578 53.5 L 54 53.5 L 53.5 53.5 L 53.5 54 L 53.5 69.00031280517578 C 53.5 72.07172393798828 52.30374526977539 74.95946502685547 50.13161087036133 77.13161468505859 C 47.95946502685547 79.30374145507813 45.07171249389648 80.5 42.00030136108398 80.5 Z" stroke="none"/>
      <path d="M 42.00030136108398 80 C 48.06555557250977 80 53 75.0655517578125 53 69.00031280517578 L 53 54 L 53 53 L 54 53 L 69.00031280517578 53 C 75.0655517578125 53 80 48.06555557250977 80 42.00030136108398 L 80 38.99969863891602 C 80 32.93444442749023 75.0655517578125 28 69.00031280517578 28 L 54 28 L 53 28 L 53 27 L 53 11.99969959259033 C 53 5.934444427490234 48.06555557250977 1 42.00030136108398 1 L 38.99969863891602 1 C 32.93444442749023 1 28 5.934444427490234 28 11.99969959259033 L 28 27 L 28 28 L 27 28 L 11.99969959259033 28 C 5.934444427490234 28 1 32.93444442749023 1 38.99969863891602 L 1 42.00030136108398 C 1 48.06555557250977 5.934444427490234 53 11.99969959259033 53 L 27 53 L 28 53 L 28 54 L 28 69.00031280517578 C 28 75.0655517578125 32.93444442749023 80 38.99969863891602 80 L 42.00030136108398 80 M 42.00030136108398 81 L 38.99969863891602 81 C 32.37300109863281 81 27 75.62699890136719 27 69.00031280517578 L 27 54 L 11.99969959259033 54 C 5.373000144958496 54 0 48.62699890136719 0 42.00030136108398 L 0 38.99969863891602 C 0 32.37300109863281 5.373000144958496 27 11.99969959259033 27 L 27 27 L 27 11.99969959259033 C 27 5.373000144958496 32.37300109863281 0 38.99969863891602 0 L 42.00030136108398 0 C 48.62699890136719 0 54 5.373000144958496 54 11.99969959259033 L 54 27 L 69.00031280517578 27 C 75.62699890136719 27 81 32.37300109863281 81 38.99969863891602 L 81 42.00030136108398 C 81 48.62699890136719 75.62699890136719 54 69.00031280517578 54 L 54 54 L 54 69.00031280517578 C 54 75.62699890136719 48.62699890136719 81 42.00030136108398 81 Z" stroke="none" fill="#707070"/>
    </g>
  </g>
</svg>
