<svg xmlns="http://www.w3.org/2000/svg" width="141.544" height="90.448" viewBox="0 0 141.544 90.448">
  <g id="adoption" transform="translate(-209.728 -266.323)">
    <g id="Path_1" data-name="Path 1" transform="translate(251 305)" fill="#fff">
      <path d="M 26.2488956451416 51.27053070068359 C 17.85891914367676 51.27053070068359 6.293413639068604 50.13401412963867 -1.158880352973938 44.71967315673828 C -2.949680328369141 43.4185905456543 -4.307374477386475 41.95210647583008 -5.194256782531738 40.36094284057617 C -5.994162559509277 38.92581558227539 -6.431256771087646 37.35188293457031 -6.493398189544678 35.68289566040039 C -6.575221538543701 33.48484802246094 -6.013868808746338 31.06966018676758 -4.824915885925293 28.50442504882813 C -3.862915754318237 26.42883682250977 -2.491598129272461 24.25390815734863 -0.7490686178207397 22.04004859924316 C 2.168952703475952 18.33275032043457 5.172387599945068 15.74851703643799 5.328122615814209 15.61545181274414 C 5.500566482543945 15.47975254058838 8.938302040100098 12.78835678100586 13.53011989593506 10.13328456878662 C 16.2753791809082 8.545919418334961 18.8895320892334 7.282131671905518 21.29995536804199 6.377037525177002 C 24.28794288635254 5.255061149597168 26.96296691894531 4.686178684234619 29.25073051452637 4.686178684234619 C 37.25691986083984 4.686178684234619 41.19607162475586 7.163955211639404 48.34712982177734 11.66204929351807 C 50.23327255249023 12.84846115112305 52.37107086181641 14.19316673278809 54.85194396972656 15.65913200378418 C 62.58498001098633 20.22866058349609 68.21518707275391 28.86616706848145 67.94831085205078 35.75070953369141 C 67.87451934814453 37.65414428710938 67.35791015625 39.36175537109375 66.41281127929688 40.82614517211914 C 65.39186096191406 42.40805053710938 63.86969757080078 43.70309448242188 61.88857650756836 44.67531967163086 C 55.21014404296875 47.95272064208984 40.82366180419922 51.27053070068359 26.2488956451416 51.27053070068359 Z" stroke="none"/>
      <path d="M 29.25073051452637 5.186172485351563 C 25.21969223022461 5.186172485351563 19.87428283691406 7.044132232666016 13.79238128662109 10.55919647216797 C 9.278553009033203 13.16799163818359 5.884296417236328 15.81449508666992 5.645336151123047 16.00208282470703 C 5.432033538818359 16.18496704101563 2.488338470458984 18.73213577270508 -0.3679695129394531 22.36428451538086 C -2.083694458007813 24.5460319519043 -3.432144165039063 26.68593215942383 -4.375869750976563 28.72457122802734 C -5.528480529785156 31.21445846557617 -6.072792053222656 33.54987335205078 -5.993682861328125 35.66594696044922 C -5.934280395507813 37.25500869750977 -5.518230438232422 38.75299835205078 -4.757080078125 40.11829376220703 C -3.905818939208984 41.64525604248047 -2.596332550048828 43.05728149414063 -0.8650054931640625 44.31514739990234 C 6.478656768798828 49.65056991577148 17.93303298950195 50.77052307128906 26.24889373779297 50.77052307128906 C 32.85304260253906 50.77052307128906 39.90848159790039 50.0766716003418 46.65243148803711 48.76396942138672 C 52.81893157958984 47.56367111206055 58.15166854858398 45.95220947265625 61.66830444335938 44.22644805908203 C 63.56674194335938 43.29479598999023 65.02168273925781 42.05954742431641 65.99269104003906 40.55500793457031 C 66.88854217529297 39.16693115234375 67.37840270996094 37.54402160644531 67.44868469238281 35.73134613037109 C 67.57472229003906 32.47993469238281 66.33089447021484 28.68854713439941 63.94631958007813 25.05557250976563 C 61.56653213500977 21.42990875244141 58.24641799926758 18.24573516845703 54.59757995605469 16.08959579467773 C 52.11073303222656 14.62009811401367 49.96980667114258 13.27343368530273 48.08090591430664 12.08528518676758 C 44.5466194152832 9.862171173095703 41.7550048828125 8.106220245361328 38.91221618652344 6.94134521484375 C 35.94985580444336 5.727485656738281 32.97014617919922 5.186172485351563 29.25073051452637 5.186172485351563 M 29.25073051452637 4.186172485351563 C 39.55255889892578 4.186172485351563 43.25583267211914 8.226108551025391 55.10630798339844 15.22867202758789 C 66.95677947998047 22.23123550415039 74.47144317626953 39.05729675292969 62.10885620117188 45.12417221069336 C 55.05453872680664 48.58603668212891 40.40885925292969 51.77052688598633 26.24889945983887 51.77052688598633 C 15.59371566772461 51.77052688598633 5.214336395263672 49.96805572509766 -1.452781677246094 45.12417221069336 C -16.97999572753906 33.84313201904297 5.011119842529297 15.22867202758789 5.011119842529297 15.22867202758789 C 5.011119842529297 15.22867202758789 18.94890594482422 4.186172485351563 29.25073051452637 4.186172485351563 Z" stroke="none" fill="#707070"/>
    </g>
    <g id="Path_2" data-name="Path 2" transform="translate(267 275)" fill="#fff">
      <path d="M 13.5 29.49999809265137 C 10.03761959075928 29.49999809265137 6.779459953308105 27.99850845336914 4.325709819793701 25.27211761474609 C 1.858659982681274 22.53095817565918 0.5 18.88291931152344 0.5 14.99999809265137 C 0.5 12.98515892028809 0.8612099885940552 10.54115867614746 1.544579982757568 7.932228565216064 C 2.243520021438599 5.263838291168213 3.231339931488037 2.61724853515625 4.401229858398438 0.2785584926605225 C 5.664840221405029 -2.247471570968628 7.114669799804688 -4.34395170211792 8.593990325927734 -5.784251689910889 C 10.22476005554199 -7.372001647949219 11.87537956237793 -8.177061080932617 13.5 -8.177061080932617 C 15.12462043762207 -8.177061080932617 16.77523994445801 -7.372001647949219 18.40600967407227 -5.784251689910889 C 19.88533020019531 -4.34395170211792 21.33515930175781 -2.247471570968628 22.59877014160156 0.2785584926605225 C 23.7686595916748 2.61724853515625 24.75647926330566 5.263838291168213 25.45541954040527 7.932228565216064 C 26.13879013061523 10.54115867614746 26.5 12.98515892028809 26.5 14.99999809265137 C 26.5 18.88291931152344 25.1413402557373 22.53095817565918 22.67428970336914 25.27211761474609 C 20.22053909301758 27.99850845336914 16.96237945556641 29.49999809265137 13.5 29.49999809265137 Z" stroke="none"/>
      <path d="M 13.5 -7.677061080932617 C 12.01021003723145 -7.677061080932617 10.47694969177246 -6.91969108581543 8.942789077758789 -5.426000595092773 C 7.503089904785156 -4.024280548095703 6.0872802734375 -1.974321365356445 4.848400115966797 0.5022487640380859 C 2.546550750732422 5.103769302368164 1 10.92996883392334 1 14.99999809265137 C 1 22.71962928771973 6.607479095458984 28.99999809265137 13.5 28.99999809265137 C 20.39252090454102 28.99999809265137 26 22.71962928771973 26 14.99999809265137 C 26 10.92996883392334 24.45344924926758 5.103769302368164 22.1515998840332 0.5022487640380859 C 20.9127197265625 -1.974321365356445 19.49691009521484 -4.024280548095703 18.05720901489258 -5.426000595092773 C 16.52305030822754 -6.91969108581543 14.98978996276855 -7.677061080932617 13.5 -7.677061080932617 M 13.5 -8.677061080932617 C 20.95584106445313 -8.677061080932617 27 6.715728759765625 27 14.99999809265137 C 27 23.28426933288574 20.95584106445313 29.99999809265137 13.5 29.99999809265137 C 6.044160842895508 29.99999809265137 0 23.28426933288574 0 14.99999809265137 C 0 6.715728759765625 6.044160842895508 -8.677061080932617 13.5 -8.677061080932617 Z" stroke="none" fill="#707070"/>
    </g>
    <g id="Path_3" data-name="Path 3" transform="matrix(0.766, 0.643, -0.643, 0.766, 325.011, 287.817)" fill="#fff">
      <path d="M 13.5 29.49999809265137 C 10.03761959075928 29.49999809265137 6.779459953308105 27.99850845336914 4.325709819793701 25.27211761474609 C 1.858659982681274 22.53095817565918 0.5 18.88291931152344 0.5 14.99999809265137 C 0.5 12.98515892028809 0.8612099885940552 10.54115867614746 1.544579982757568 7.932228565216064 C 2.243520021438599 5.263838291168213 3.231339931488037 2.61724853515625 4.401229858398438 0.2785584926605225 C 5.664840221405029 -2.247471570968628 7.114669799804688 -4.34395170211792 8.593990325927734 -5.784251689910889 C 10.22476005554199 -7.372001647949219 11.87537956237793 -8.177061080932617 13.5 -8.177061080932617 C 15.12462043762207 -8.177061080932617 16.77523994445801 -7.372001647949219 18.40600967407227 -5.784251689910889 C 19.88533020019531 -4.34395170211792 21.33515930175781 -2.247471570968628 22.59877014160156 0.2785584926605225 C 23.7686595916748 2.61724853515625 24.75647926330566 5.263838291168213 25.45541954040527 7.932228565216064 C 26.13879013061523 10.54115867614746 26.5 12.98515892028809 26.5 14.99999809265137 C 26.5 18.88291931152344 25.1413402557373 22.53095817565918 22.67428970336914 25.27211761474609 C 20.22053909301758 27.99850845336914 16.96237945556641 29.49999809265137 13.5 29.49999809265137 Z" stroke="none"/>
      <path d="M 13.5 -7.677061080932617 C 12.01021003723145 -7.677061080932617 10.47694969177246 -6.91969108581543 8.942789077758789 -5.426000595092773 C 7.503089904785156 -4.024280548095703 6.0872802734375 -1.974321365356445 4.848400115966797 0.5022487640380859 C 2.546550750732422 5.103769302368164 1 10.92996883392334 1 14.99999809265137 C 1 22.71962928771973 6.607479095458984 28.99999809265137 13.5 28.99999809265137 C 20.39252090454102 28.99999809265137 26 22.71962928771973 26 14.99999809265137 C 26 10.92996883392334 24.45344924926758 5.103769302368164 22.1515998840332 0.5022487640380859 C 20.9127197265625 -1.974321365356445 19.49691009521484 -4.024280548095703 18.05720901489258 -5.426000595092773 C 16.52305030822754 -6.91969108581543 14.98978996276855 -7.677061080932617 13.5 -7.677061080932617 M 13.5 -8.677061080932617 C 20.95584106445313 -8.677061080932617 27 6.715728759765625 27 14.99999809265137 C 27 23.28426933288574 20.95584106445313 29.99999809265137 13.5 29.99999809265137 C 6.044160842895508 29.99999809265137 0 23.28426933288574 0 14.99999809265137 C 0 6.715728759765625 6.044160842895508 -8.677061080932617 13.5 -8.677061080932617 Z" stroke="none" fill="#707070"/>
    </g>
    <g id="Path_4" data-name="Path 4" transform="translate(255.272 310.798) rotate(140)" fill="#fff">
      <path d="M 13.49999904632568 38.17706680297852 C 11.87537860870361 38.17706680297852 10.22475910186768 37.37200546264648 8.593989372253418 35.78425598144531 C 7.114668846130371 34.34395599365234 5.664839267730713 32.24747848510742 4.401228904724121 29.7214469909668 C 3.231338977813721 27.38275718688965 2.243519067764282 24.73616790771484 1.544579029083252 22.06777763366699 C 0.8612090349197388 19.45884704589844 0.4999990463256836 17.01484680175781 0.4999990463256836 15.00000762939453 C 0.4999990463256836 11.11708736419678 1.858659029006958 7.469047069549561 4.325708866119385 4.727887153625488 C 6.779458999633789 2.001497268676758 10.03761863708496 0.5000072121620178 13.49999904632568 0.5000072121620178 C 16.96237945556641 0.5000072121620178 20.22053909301758 2.001497268676758 22.67428970336914 4.727887153625488 C 25.14133834838867 7.469047069549561 26.5 11.11708736419678 26.5 15.00000762939453 C 26.5 17.01484680175781 26.1387882232666 19.45884704589844 25.45541954040527 22.06777763366699 C 24.75647926330566 24.73616790771484 23.7686595916748 27.38275718688965 22.59876823425293 29.7214469909668 C 21.33515930175781 32.24747848510742 19.88532829284668 34.34395599365234 18.40600967407227 35.78425598144531 C 16.77523994445801 37.37200546264648 15.12461948394775 38.17706680297852 13.49999904632568 38.17706680297852 Z" stroke="none"/>
      <path d="M 13.49999904632568 37.67706680297852 C 14.98978900909424 37.67706680297852 16.52304840087891 36.91969680786133 18.05720901489258 35.42600631713867 C 19.49690818786621 34.02428817749023 20.9127197265625 31.97432708740234 22.1515998840332 29.49775695800781 C 24.45344924926758 24.89623641967773 26 19.07003784179688 26 15.00000762939453 C 26 7.280377388000488 20.39251899719238 1.000007271766663 13.49999904632568 1.000007271766663 C 6.607479095458984 1.000007271766663 0.9999990463256836 7.280377388000488 0.9999990463256836 15.00000762939453 C 0.9999990463256836 19.07003784179688 2.546549081802368 24.89623641967773 4.84839916229248 29.49775695800781 C 6.087278842926025 31.97432708740234 7.50308895111084 34.02428817749023 8.942789077758789 35.42600631713867 C 10.47694873809814 36.91969680786133 12.01020908355713 37.67706680297852 13.49999904632568 37.67706680297852 M 13.49999904632568 38.67706680297852 C 6.044158935546875 38.67706680297852 -9.5367431640625e-07 23.28427696228027 -9.5367431640625e-07 15.00000762939453 C -9.5367431640625e-07 6.715737342834473 6.044158935546875 7.216186531877611e-06 13.49999904632568 7.216186531877611e-06 C 20.95583915710449 7.216186531877611e-06 27 6.715737342834473 27 15.00000762939453 C 27 23.28427696228027 20.95583915710449 38.67706680297852 13.49999904632568 38.67706680297852 Z" stroke="none" fill="#707070"/>
    </g>
  </g>
</svg>
