<?xml version="1.0" encoding="iso-8859-1"?>
<!-- Generator: Adobe Illustrator 19.0.0, SVG Export Plug-In . SVG Version: 6.00 Build 0)  -->
<svg version="1.1" id="Layer_1" xmlns="http://www.w3.org/2000/svg" xmlns:xlink="http://www.w3.org/1999/xlink" x="0px" y="0px"
	 viewBox="0 0 511.998 511.998" style="enable-background:new 0 0 511.998 511.998;" xml:space="preserve">
<g>
	<g>
		<path d="M415.983,463.148c4.95-22.209,14.625-76.317,5.53-128.088c-5.62-31.993-39.661-80.608-101.177-144.495
			c-3.416-3.548-9.064-3.657-12.614-0.238c-3.549,3.417-3.655,9.065-0.238,12.614c57.346,59.555,91.602,107.573,96.456,135.206
			c10.861,61.83-7.492,129.946-7.678,130.624c-0.747,2.717-0.151,5.626,1.581,7.85c1.733,2.224,4.418,3.498,7.246,3.435
			c0.212-0.026,20.954-0.32,22.255,11.663c-1.835,1.042-9.671,4.089-35.639,1.305c-17.041-1.828-32.836-5.235-32.995-5.271
			c-0.622-0.134-1.257-0.203-1.894-0.203h-172.22c0.855-1.532,1.81-3.124,2.864-4.714c4.57-6.896,12.002-15.251,21.46-15.903
			c23.578-1.63,41.799,2.383,41.97,2.419c3.528,0.805,7.197-0.609,9.278-3.575c2.08-2.964,2.163-6.892,0.208-9.941
			c-5.556-8.664-19.297-35.091-16.196-53.071c0.536-3.108,1.203-6.491,1.909-10.073c0.811-4.116,1.668-8.467,2.436-12.949
			c3.259-6.196,22.785-40.025,60.262-40.025c6.561,0,12.669,1.219,18.157,3.626c4.511,1.976,9.774-0.076,11.752-4.588
			c1.979-4.513-0.076-9.775-4.588-11.754c-7.759-3.401-16.278-5.127-25.321-5.127c-26.42,0-45.531,12.571-58.1,25.272
			c-1.203-13.459-6-25.96-17.914-34.852c-0.671-0.508-1.351-0.998-2.046-1.461c-0.671-0.447-1.366-0.921-2.082-1.417
			c-0.051-0.036-0.104-0.073-0.155-0.109c-4.318-3.005-9.391-6.878-14.817-11.453c-0.057-0.048-0.113-0.095-0.17-0.143
			c-0.846-0.715-1.701-1.449-2.562-2.197c-0.278-0.243-0.557-0.489-0.836-0.734c-0.489-0.428-0.98-0.862-1.473-1.301
			c-0.464-0.414-0.928-0.829-1.391-1.248c-0.256-0.231-0.511-0.466-0.768-0.699c-1.126-1.027-2.248-2.065-3.358-3.115
			c-0.036-0.034-0.073-0.068-0.108-0.102c-0.617-0.584-1.231-1.172-1.841-1.762c-0.101-0.099-0.203-0.198-0.305-0.296
			c-0.584-0.566-1.166-1.134-1.743-1.703c-0.023-0.021-0.046-0.039-0.069-0.062c-1.383-1.368-2.763-2.775-4.14-4.205
			c9.256-4.662,17.188-6.785,17.365-6.831c1.306-0.334,2.521-0.962,3.549-1.833l42.148-35.691c3.76-3.184,4.228-8.813,1.043-12.573
			c-3.183-3.759-8.812-4.229-12.573-1.043l-40.672,34.441c-10.045,2.999-52.16,17.632-57.269,53.392
			c-1.651,11.555-9.405,17.473-13.882,19.973c-3.811,2.128-7.16,2.926-9.451,3.127c6.241-11.429,10.039-31.427,11.296-59.48
			c0.454-10.164,6.466-19.257,15.687-23.726c22.181-10.753,49.214-23.64,49.485-23.769c2.302-1.097,4.023-3.126,4.732-5.576
			l12.261-42.404c1.369-4.733-1.358-9.68-6.091-11.048c-4.735-1.37-9.68,1.36-11.048,6.093l-11.149,38.556
			c-5.553,2.651-16.807,8.032-28.929,13.865c-0.046-0.346-0.107-0.699-0.143-1.038c-0.964-9.158-1.023-19.76-1.085-30.986
			c-0.1-18.156-0.211-36.681-4.355-51.242c8.56,2.12,18.358,4.168,26.965,5.011c0.296,0.029,0.59,0.044,0.881,0.044
			c4.536,0,8.417-3.445,8.869-8.052c0.481-4.904-3.105-9.269-8.008-9.749c-16.226-1.592-38.422-8.322-43.862-10.025
			c-39.624-27.701-55.216-45.902-56.026-51.339c6.241-11.21,38.464-34.024,67.005-28.767c31.323,5.77,52.042,16.331,52.237,16.433
			c3.52,1.826,7.827,1.109,10.565-1.763c7.963-8.347,31.784-30.719,46.192-33.962c4.175-0.94,8.792-1.656,13.487-2.073
			c-32.051,12.912-51.998,35.302-53.065,36.518c-3.247,3.705-2.876,9.342,0.829,12.59c1.693,1.483,3.79,2.211,5.876,2.211
			c2.48,0,4.95-1.029,6.714-3.042c0.293-0.334,29.766-33.455,72.981-38.719c0.87-0.106,1.69-0.339,2.456-0.669
			c0.41,0.811,0.721,1.68,0.916,2.628c-0.4,2.132-5.045,10.615-21.974,24.955c-13.449,11.39-25.196,18.43-28.491,19.468
			c-1.124-0.014-2.346-0.065-3.629-0.12c-9.07-0.378-21.485-0.903-33.874,9.717c-2.475,2.121-3.595,5.423-2.924,8.611
			c0.741,3.519,7.648,34.731,21.914,47.098c3.503,3.036,21.291,19.035,44.325,41.853c3.501,3.467,9.149,3.442,12.616-0.059
			c3.467-3.5,3.441-9.149-0.06-12.616c-23.383-23.166-41.598-39.543-45.195-42.661c-6.225-5.393-11.798-20.451-14.78-31.641
			c5.545-2.963,11.054-2.731,17.227-2.473c1.62,0.068,3.296,0.138,4.947,0.138c2.032,0,8.217,0,27.856-14.514
			c11.989-8.862,22.898-18.761,29.93-27.162c7.826-9.348,10.92-16.79,9.735-23.417c-1.401-7.838-5.78-14.398-12.664-18.97
			c-19.642-13.045-52.654-6.503-59.072-5.059c-17.994,4.049-40.839,24.849-50.655,34.477c-8.887-3.883-27.052-10.879-51.189-15.326
			c-37.485-6.9-77.86,21.63-86.473,38.854c-6.712,13.425,8.209,29.516,21.957,42.035c14.167,12.9,31.798,25.629,41.111,32.111
			c0.021,0.016,0.043,0.03,0.064,0.045c0.01,0.007,0.02,0.014,0.03,0.021c10.482,7.29,10.632,34.602,10.765,58.698
			c0.062,11.167,0.125,22.715,1.182,32.753c0.245,2.334,0.68,4.744,1.262,7.197c-0.139,0.068-0.28,0.136-0.419,0.203
			c-15.121,7.331-24.981,22.27-25.728,38.985c-1.131,25.284-4.492,43.861-9.46,52.308c-5.908,10.043-2.229,16.86-0.373,19.325
			c3.227,4.286,8.653,6.546,15.244,6.546c2.708,0,5.615-0.382,8.645-1.162c13.476-3.466,30.328-15.32,33.471-37.316
			c1.324-9.272,6.805-16.685,13.544-22.471c0.401,0.428,0.811,0.852,1.217,1.279c-4.555,6.843-7.197,14.812-7.569,23.124
			c-1.131,25.284-4.492,43.861-9.46,52.308c-5.908,10.043-2.229,16.86-0.374,19.325c3.227,4.286,8.654,6.546,15.245,6.546
			c2.708,0,5.615-0.382,8.644-1.162c13.476-3.466,30.328-15.318,33.472-37.316c0.915-6.404,3.905-12.405,8.895-17.928
			c4.831,10.69,3.688,25.228,1.335,39.31c-0.002,0.013-0.005,0.026-0.006,0.039c-0.77,4.605-1.668,9.159-2.525,13.513
			c-0.727,3.69-1.414,7.173-1.986,10.492c-2.905,16.853,3.891,36.302,10.106,49.656c-7.891-0.673-17.883-1.024-29.01-0.258
			c-30.938,2.134-44.837,42.788-45.414,44.517c-0.906,2.72-0.451,5.712,1.226,8.039c1.677,2.325,4.37,3.704,7.238,3.704h185.138
			c3.731,0.779,17.612,3.571,33.029,5.274c8.517,0.941,15.584,1.337,21.477,1.337c18.065,0,25.082-3.728,28.879-6.915
			c4.054-3.402,6.171-8.142,5.963-13.344C444.49,473.291,429.236,465.598,415.983,463.148z M203.221,351.787
			c-1.651,11.555-9.407,17.473-13.882,19.973c-3.811,2.128-7.16,2.926-9.451,3.127c6.241-11.429,10.039-31.427,11.296-59.48
			c0.172-3.871,1.157-7.621,2.856-11.037c7.627,6.995,15.526,13.425,23.071,18.75c0.12,0.084,0.243,0.176,0.363,0.26
			C209.498,331.797,204.716,341.317,203.221,351.787z"/>
	</g>
</g>
<g>
	<g>
		<path d="M375.686,382.057c-0.149-0.715-3.755-17.698-15.26-33.374c-2.917-3.972-8.499-4.828-12.471-1.914
			c-3.972,2.915-4.829,8.499-1.914,12.471c9.087,12.382,12.121,26.199,12.176,26.451c0.88,4.204,4.588,7.097,8.723,7.097
			c0.598,0,1.207-0.062,1.816-0.187C373.581,391.602,376.684,386.881,375.686,382.057z"/>
	</g>
</g>
<g>
	<g>
		<path d="M145.811,50.389c-5.672,0-10.285,4.606-10.285,10.268c0,5.662,4.614,10.269,10.285,10.269
			c5.672,0,10.286-4.607,10.286-10.269C156.096,54.995,151.482,50.389,145.811,50.389z"/>
	</g>
</g>
<g>
</g>
<g>
</g>
<g>
</g>
<g>
</g>
<g>
</g>
<g>
</g>
<g>
</g>
<g>
</g>
<g>
</g>
<g>
</g>
<g>
</g>
<g>
</g>
<g>
</g>
<g>
</g>
<g>
</g>
</svg>
