<svg id="Capa_1" enable-background="new 0 0 512.027 512.027" height="512" viewBox="0 0 512.027 512.027" width="512" xmlns="http://www.w3.org/2000/svg"><g><path d="m214.689 147.561c13.27 0 24.066-10.796 24.066-24.066s-10.796-24.067-24.066-24.067c-13.271 0-24.067 10.796-24.067 24.067s10.797 24.066 24.067 24.066zm0-33.134c4.999 0 9.066 4.067 9.066 9.067 0 4.999-4.067 9.066-9.066 9.066-5 0-9.067-4.067-9.067-9.066s4.067-9.067 9.067-9.067z"/><path d="m297.522 147.561c13.27 0 24.066-10.796 24.066-24.066s-10.796-24.067-24.066-24.067c-13.271 0-24.066 10.796-24.066 24.067s10.796 24.066 24.066 24.066zm0-33.134c4.999 0 9.066 4.067 9.066 9.067 0 4.999-4.067 9.066-9.066 9.066s-9.066-4.067-9.066-9.066 4.067-9.067 9.066-9.067z"/><path d="m424.283 444.461c3.312-9.976 4.989-20.389 4.989-31.051 0-42.251-27.217-79.869-66.818-93.355-1.449-27.46-5.789-54.716-12.955-81.295.068-1.002.115-2.009.115-3.027v-21.416c0-4.441-.908-8.673-2.547-12.523 4.183-5.809 7.744-11.938 10.701-18.314 2.424 3.803 5.699 7.088 9.672 9.544 5.005 3.095 10.685 4.664 16.386 4.664 4.28 0 8.572-.885 12.597-2.674l30.367-13.497c13.011-5.782 20.565-19.159 18.801-33.288l-7.932-63.451c-1.556-12.448-7.301-24.186-16.177-33.052l-39.089-39.045c-15.65-15.652-40.448-16.977-57.67-3.086l-28.076 22.59c-12.862-4.984-26.659-7.586-40.542-7.586s-27.679 2.602-40.541 7.586l-28.07-22.585c-17.23-13.896-42.026-12.57-57.675 3.078l-7.78 7.772c-2.93 2.927-2.933 7.676-.006 10.606 2.928 2.931 7.676 2.933 10.607.006l7.783-7.774c10.217-10.218 26.404-11.083 37.661-2.006l22.96 18.474c-1.765 2.267-2.144 5.446-.703 8.143 1.953 3.653 6.498 5.034 10.149 3.08 13.933-7.444 29.705-11.379 45.613-11.379 15.909 0 31.682 3.935 45.614 11.379 1.125.602 2.335.887 3.527.887 2.679 0 5.272-1.439 6.622-3.967 1.441-2.697 1.062-5.876-.703-8.143l22.967-18.479c11.248-9.072 27.436-8.206 37.657 2.015l39.092 39.048c6.525 6.518 10.749 15.148 11.893 24.3l7.932 63.45c.94 7.521-3.082 14.643-10.008 17.721l-30.367 13.497c-4.854 2.157-10.46 1.766-15.003-1.042-4.39-2.714-7.038-7.169-7.266-12.218-.012-.262-.018-99.087-.018-99.087 0-10.91-8.876-19.787-19.787-19.787-4.143 0-7.5 3.358-7.5 7.5s3.357 7.5 7.5 7.5c2.64 0 4.787 2.147 4.787 4.787v17.285c-1.561-.373-3.252-.257-4.828.456-3.773 1.707-5.449 6.151-3.741 9.925 5.687 12.568 8.569 25.997 8.569 39.913 0 18.982-5.359 37.022-15.557 52.688-5.48-4.366-12.411-6.985-19.947-6.985-4.143 0-7.5 3.358-7.5 7.5s3.357 7.5 7.5 7.5c9.414 0 17.073 7.66 17.073 17.074v21.416c0 16.19-13.171 29.361-29.36 29.361h-24.571c-9.415 0-17.074-7.66-17.074-17.074v-12.708c5.567-1.329 10.845-4.159 15.181-8.494l2.278-2.278c4.886-4.886 6.88-12.086 5.204-18.79l-2.13-8.52c-2.207-8.824-10.101-14.987-19.196-14.987h-17.674c-9.097 0-16.99 6.164-19.196 14.988l-2.13 8.518c-1.676 6.704.318 13.904 5.205 18.791l2.278 2.278c4.335 4.335 9.613 7.164 15.18 8.494v12.708c0 9.414-7.659 17.074-17.073 17.074h-24.574c-16.19 0-29.361-13.171-29.361-29.361v-21.416c0-9.414 7.659-17.074 17.074-17.074 4.143 0 7.5-3.358 7.5-7.5s-3.357-7.5-7.5-7.5c-7.535 0-14.467 2.619-19.947 6.985-10.198-15.665-15.558-33.706-15.558-52.687 0-13.915 2.884-27.344 8.57-39.913 1.708-3.774.032-8.218-3.741-9.925-1.576-.714-3.267-.83-4.829-.456v-17.285c0-2.639 2.147-4.787 4.787-4.787 4.143 0 7.5-3.358 7.5-7.5s-3.357-7.5-7.5-7.5c-10.91 0-19.787 8.876-19.787 19.787 0 0-.005 98.825-.017 99.083-.229 5.053-2.877 9.508-7.267 12.222-4.541 2.809-10.148 3.197-15.002 1.041l-30.368-13.497c-6.926-3.078-10.947-10.199-10.007-17.72l7.932-63.451c1.144-9.152 5.367-17.782 11.892-24.3l10.087-10.075c2.931-2.927 2.934-7.676.007-10.607-2.927-2.93-7.676-2.933-10.606-.006l-10.089 10.076c-8.875 8.865-14.62 20.604-16.176 33.052l-7.932 63.45c-1.767 14.128 5.789 27.505 18.8 33.288l30.368 13.497c4.024 1.789 8.315 2.674 12.597 2.674 5.699 0 11.381-1.57 16.385-4.664 3.973-2.456 7.248-5.741 9.672-9.545 2.957 6.375 6.518 12.505 10.701 18.314-1.639 3.85-2.547 8.082-2.547 12.523v21.416c0 1.019.047 2.027.115 3.029-2.321 8.609-4.343 17.29-6.069 26.025-18.974-10.656-40.274-16.259-62.252-16.259-15.554 0-28.208 12.654-28.208 28.208s12.654 28.208 28.208 28.208c17.686 0 34.474 6.539 47.458 18.195-35.269 15.547-58.909 50.897-58.909 90.271 0 10.663 1.677 21.075 4.989 31.051-12.814 6.844-21.556 20.349-21.556 35.863v7.636c0 13.271 10.797 24.067 24.067 24.067h331.333c13.27 0 24.066-10.796 24.066-24.067v-7.636c0-15.513-8.742-29.019-21.556-35.863zm-182.528-230.528c-1.183-1.183-1.665-2.924-1.26-4.545l2.13-8.518v-.001c.533-2.135 2.443-3.626 4.643-3.626h17.674c2.201 0 4.111 1.492 4.645 3.625l2.129 8.519c.406 1.622-.076 3.363-1.259 4.545l-2.278 2.278c-6.655 6.656-17.488 6.658-24.145 0zm6.85 61.219v21.602c0 4.142 3.357 7.5 7.5 7.5s7.5-3.358 7.5-7.5v-21.602c4.948 3.125 10.802 4.942 17.074 4.942h4.787v21.906c0 16.19-13.172 29.361-29.361 29.361s-29.36-13.171-29.36-29.361v-21.905h4.787c6.273-.001 12.125-1.818 17.073-4.943zm-167.422 1.584c0-7.283 5.925-13.208 13.208-13.208 21.167 0 41.626 5.878 59.47 17.028-1.551 9.978-2.712 20.015-3.487 30.087-15.501-13.286-35.235-20.698-55.983-20.698-7.284-.001-13.208-5.926-13.208-13.209zm.189 211.225v-7.636c0-14.134 11.499-25.633 25.634-25.633 4.143 0 7.5-3.358 7.5-7.5s-3.357-7.5-7.5-7.5c-1.603 0-3.181.103-4.736.285-2.86-8.527-4.331-17.432-4.331-26.565 0-33.895 20.647-64.285 51.304-77.146-.017 1.472-.037 2.943-.037 4.415v46.433c0 4.142 3.357 7.5 7.5 7.5s7.5-3.358 7.5-7.5v-46.434c0-26.013 2.71-51.944 8.046-77.366 8.134 10.214 20.664 16.78 34.706 16.78h4.787v21.906c0 24.461 19.9 44.361 44.36 44.361 24.461 0 44.361-19.9 44.361-44.361v-21.905h4.787c14.042 0 26.571-6.566 34.706-16.78 5.337 25.423 8.046 51.355 8.046 77.368v100.041c-2.918-.668-5.949-1.032-9.066-1.032-4.143 0-7.5 3.358-7.5 7.5s3.357 7.5 7.5 7.5c14.134 0 25.633 11.499 25.633 25.633v7.636c0 4.999-4.067 9.067-9.066 9.067h-9.066v-9.067c0-4.142-3.357-7.5-7.5-7.5s-7.5 3.358-7.5 7.5v9.067h-18.134v-9.067c0-4.142-3.357-7.5-7.5-7.5s-7.5 3.358-7.5 7.5v9.067h-9.066c-4.999 0-9.066-4.067-9.066-9.067v-7.636c0-14.134 11.499-25.633 25.633-25.633 4.143 0 7.5-3.358 7.5-7.5s-3.357-7.5-7.5-7.5c-3.539 0-6.974.457-10.249 1.312l-7.15-61.59c-.478-4.115-4.195-7.058-8.315-6.586-4.114.478-7.062 4.201-6.585 8.315l7.758 66.826c-9.769 7.428-16.091 19.166-16.091 32.357v7.636c0 3.207.635 6.267 1.779 9.067h-21.694c1.143-2.8 1.779-5.86 1.779-9.067v-7.636c0-13.191-6.322-24.929-16.09-32.357l7.757-66.826c.478-4.114-2.471-7.837-6.585-8.315-4.113-.471-7.837 2.471-8.315 6.586l-7.15 61.59c-3.276-.854-6.71-1.312-10.25-1.312-4.143 0-7.5 3.358-7.5 7.5s3.357 7.5 7.5 7.5c14.134 0 25.633 11.499 25.633 25.633v7.636c0 4.999-4.067 9.067-9.066 9.067h-9.066v-9.067c0-4.142-3.357-7.5-7.5-7.5s-7.5 3.358-7.5 7.5v9.067h-18.134v-9.067c0-4.142-3.357-7.5-7.5-7.5s-7.5 3.358-7.5 7.5v9.067h-9.066c-5 0-9.067-4.067-9.067-9.067v-7.636c0-14.134 11.499-25.633 25.634-25.633 4.143 0 7.5-3.358 7.5-7.5s-3.357-7.5-7.5-7.5c-3.117 0-6.149.365-9.066 1.032v-23.48c0-4.142-3.357-7.5-7.5-7.5s-7.5 3.358-7.5 7.5v30.367c-10.04 7.405-16.567 19.31-16.567 32.714v7.636c0 3.207.635 6.267 1.779 9.067h-19.912v-9.067c0-4.142-3.357-7.5-7.5-7.5s-7.5 3.358-7.5 7.5v9.067h-9.066c-5.003-.001-9.07-4.068-9.07-9.067zm349.467 0c0 4.999-4.067 9.067-9.066 9.067h-9.066v-9.067c0-4.142-3.357-7.5-7.5-7.5s-7.5 3.358-7.5 7.5v9.067h-19.913c1.143-2.8 1.779-5.86 1.779-9.067v-7.636c0-13.404-6.527-25.308-16.566-32.714v-106.929c0-1.473-.02-2.945-.037-4.417 30.657 12.861 51.303 43.251 51.303 77.146 0 9.132-1.471 18.037-4.332 26.565-1.555-.181-3.132-.285-4.735-.285-4.143 0-7.5 3.358-7.5 7.5s3.357 7.5 7.5 7.5c14.134 0 25.633 11.499 25.633 25.633z"/></g></svg>