<svg xmlns="http://www.w3.org/2000/svg" width="64.339" height="72.831" viewBox="0 0 64.339 72.831">
  <g id="donation" transform="translate(-358 -271.169)">
    <g id="Path_5" data-name="Path 5" transform="translate(358 307)" fill="#fff">
      <path d="M 63.83938217163086 36.49999618530273 L 0.5000029802322388 36.49999618530273 L 0.5000029802322388 0.1905540376901627 L 31.95562934875488 -35.08271408081055 L 63.83938217163086 0.1924678832292557 L 63.83938217163086 36.49999618530273 Z" stroke="none"/>
      <path d="M 31.95813369750977 -34.33427810668945 L 1.000003814697266 0.381111204624176 L 1.000003814697266 35.99999618530273 L 63.33938217163086 35.99999618530273 L 63.33938217163086 0.3849499821662903 L 31.95813369750977 -34.33427810668945 M 31.95312118530273 -35.83114242553711 L 64.33938598632813 -3.099441528320313e-06 L 64.33938598632813 36.99999618530273 L 0 36.99999618530273 L 0 -3.099441528320313e-06 L 31.95312118530273 -35.83114242553711 Z" stroke="none" fill="#707070"/>
    </g>
    <g id="Path_14" data-name="Path 14" transform="translate(364 300.962)" fill="#fff">
      <path d="M 26.24186897277832 31.36309623718262 C 24.10893058776855 29.37716865539551 12.35814380645752 18.17719841003418 11.73348236083984 11.95238208770752 C 11.51548194885254 9.77999210357666 12.27709197998047 7.553991794586182 13.82302188873291 5.845161914825439 C 15.42823219299316 4.070802211761475 17.66096305847168 3.053162097930908 19.94871139526367 3.053162097930908 C 22.05813217163086 3.053162097930908 24.11507225036621 3.919412136077881 25.89715194702148 5.558261871337891 L 26.21196174621582 5.847772121429443 L 26.5467529296875 5.581622123718262 C 28.52944183349609 4.005442142486572 30.70947265625 3.172312021255493 32.85117340087891 3.172312021255493 C 35.12847137451172 3.172312021255493 37.2312126159668 4.089141845703125 38.77204132080078 5.753911972045898 C 40.32668304443359 7.433601856231689 41.08372116088867 9.638952255249023 40.90368270874023 11.96369171142578 C 40.68172073364258 14.8299617767334 38.03070068359375 19.13559150695801 33.23721313476563 24.41513252258301 C 30.22290229797363 27.73508644104004 27.22530364990234 30.4806022644043 26.24186897277832 31.36309623718262 Z" stroke="none"/>
      <path d="M 19.94871139526367 3.55316162109375 C 17.80198287963867 3.55316162109375 15.70440292358398 4.510822296142578 14.19380187988281 6.180601119995117 C 12.74248123168945 7.78485107421875 12.02706146240234 9.870382308959961 12.23098373413086 11.90245246887207 C 12.50031280517578 14.58638191223145 15.09639358520508 18.76962280273438 19.73855209350586 23.99995231628418 C 22.40489959716797 27.00413513183594 25.05230331420898 29.55949020385742 26.24755859375 30.68411827087402 C 27.46566581726074 29.57698249816895 30.16851234436035 27.05254936218262 32.87956237792969 24.06521224975586 C 37.58975219726563 18.87502288818359 40.19206237792969 14.67704200744629 40.40518188476563 11.92509269714355 C 40.5743522644043 9.740512847900391 39.86396026611328 7.669242858886719 38.40485382080078 6.09282112121582 C 36.96003341674805 4.531852722167969 34.98815155029297 3.672231674194336 32.85131072998047 3.672311782836914 C 30.82333183288574 3.672601699829102 28.7508430480957 4.468172073364258 26.8578929901123 5.973012924194336 L 26.18831253051758 6.505311965942383 L 25.55869293212891 5.926301956176758 C 23.87049293518066 4.373781204223633 21.93059158325195 3.55316162109375 19.94871139526367 3.55316162109375 M 19.94871520996094 2.55316162109375 C 22.02369117736816 2.55316162109375 24.2192268371582 3.335914611816406 26.2356014251709 5.190231323242188 C 28.45209121704102 3.428182601928711 30.74291229248047 2.672609329223633 32.85116577148438 2.672309875488281 C 37.8312873840332 2.671600341796875 41.79845809936523 6.885303497314453 41.40219116210938 12.0023021697998 C 40.83817291259766 19.2855110168457 26.2356014251709 32.03776168823242 26.2356014251709 32.03776168823242 C 26.2356014251709 32.03776168823242 11.94699096679688 19.08762168884277 11.23598098754883 12.0023021697998 C 10.73496246337891 7.009632110595703 14.99818420410156 2.55316162109375 19.94871520996094 2.55316162109375 Z" stroke="none" fill="#707070"/>
    </g>
  </g>
</svg>
