<svg xmlns="http://www.w3.org/2000/svg" width="85.567" height="83.447" viewBox="0 0 85.567 83.447">
  <g id="favorite" transform="translate(-17.196 -273.553)">
    <g id="Path_7" data-name="Path 7" transform="translate(6 271)" fill="#fff">
      <path d="M 53.76718902587891 85.32761383056641 C 51.94197845458984 83.64820861816406 42.84521102905273 75.17706298828125 33.65789794921875 64.82918548583984 C 27.65983390808105 58.07343673706055 22.7982349395752 51.8525505065918 19.20813369750977 46.33933639526367 C 14.74792194366455 39.48993682861328 12.25779628753662 33.73891448974609 11.80693435668945 29.24604988098145 C 11.47672176361084 25.95549964904785 11.87729644775391 22.68047523498535 12.99752140045166 19.51194953918457 C 14.06750869750977 16.48554992675781 15.73464679718018 13.70791339874268 17.95264625549316 11.25620079040527 C 22.6688346862793 6.043050289154053 29.23519706726074 3.053163051605225 35.96805953979492 3.053163051605225 C 38.94552230834961 3.053163051605225 41.89675903320313 3.634350538253784 44.73980712890625 4.780562877655029 C 47.79887008666992 6.013875484466553 50.72019577026367 7.899350643157959 53.42264556884766 10.38460063934326 L 53.73744583129883 10.67410087585449 L 54.07224655151367 10.40795040130615 C 57.05760955810547 8.034663200378418 60.19932174682617 6.232887744903564 63.41009521484375 5.052675247192383 C 66.41087341308594 3.949662923812866 69.46389770507813 3.390375375747681 72.48435974121094 3.390375375747681 C 75.85842132568359 3.390375375747681 79.11341857910156 4.077688217163086 82.158935546875 5.433212757110596 C 85.10494995117188 6.744450569152832 87.71382141113281 8.614112854003906 89.91309356689453 10.99027538299561 C 92.12583160400391 13.38101291656494 93.79864501953125 16.14973831176758 94.88504791259766 19.21955108642578 C 96.0169677734375 22.41798782348633 96.45494842529297 25.79520034790039 96.18683624267578 29.25737571716309 C 95.82928466796875 33.87446212768555 93.37302398681641 39.70222473144531 88.88626098632813 46.57878875732422 C 85.27419281005859 52.11474990844727 80.35134887695313 58.32656478881836 74.25443267822266 65.04168701171875 C 64.91421508789063 75.32900238037109 55.62623596191406 83.67782592773438 53.76718902587891 85.32761383056641 Z" stroke="none"/>
      <path d="M 35.96804809570313 3.55316162109375 C 29.37620544433594 3.55316162109375 22.94498443603516 6.483078002929688 18.32341003417969 11.59165191650391 C 16.1500244140625 13.99404907226563 14.51673126220703 16.71490097045898 13.46891784667969 19.67862701416016 C 12.37340545654297 22.77722549438477 11.98162078857422 25.97937393188477 12.30442047119141 29.19612503051758 C 12.74714660644531 33.60792541503906 15.21009826660156 39.28276443481445 19.62483215332031 46.06298828125 C 23.20046997070313 51.55452728271484 28.04570770263672 57.75447463989258 34.02593231201172 64.49062347412109 C 42.73504638671875 74.30060577392578 51.36473083496094 82.42279815673828 53.7732048034668 84.65270233154297 C 56.22783660888672 82.45975494384766 65.04231262207031 74.44567108154297 73.89686584472656 64.69168853759766 C 79.97293090820313 57.9984245300293 84.87684631347656 51.8099250793457 88.47237396240234 46.29808807373047 C 92.90966033935547 39.49587631225586 95.33744812011719 33.74956130981445 95.68832397460938 29.2187614440918 C 95.95103454589844 25.82630157470703 95.52213287353516 22.51782608032227 94.41352081298828 19.38522720336914 C 93.34979248046875 16.37943649291992 91.71193695068359 13.66854858398438 89.54542541503906 11.32787322998047 C 87.39284515380859 9.002235412597656 84.83963012695313 7.172439575195313 81.95672607421875 5.889289855957031 C 78.97637176513672 4.562774658203125 75.79061126708984 3.890251159667969 72.4844970703125 3.890373229980469 C 69.52268218994141 3.890800476074219 66.52764892578125 4.439849853515625 63.58258438110352 5.522300720214844 C 60.42173385620117 6.684051513671875 57.32668304443359 8.459510803222656 54.38338470458984 10.79934692382813 L 53.71380996704102 11.33164978027344 L 53.08418273925781 10.75262451171875 C 50.42623519897461 8.30828857421875 47.55587005615234 6.455009460449219 44.5528450012207 5.244300842285156 C 41.76948547363281 4.122138977050781 38.88114929199219 3.55316162109375 35.96804809570313 3.55316162109375 M 35.96805572509766 2.55316162109375 C 41.84061431884766 2.55316162109375 48.05438995361328 4.768501281738281 53.7610969543457 10.01656341552734 C 60.03416442871094 5.029640197753906 66.51760864257813 2.891227722167969 72.48435974121094 2.890380859375 C 86.57901000976563 2.888374328613281 97.80683898925781 14.81392288208008 96.68533325195313 29.29597473144531 C 95.08905792236328 49.90879058837891 53.7610969543457 86 53.7610969543457 86 C 53.7610969543457 86 13.32173156738281 49.34872436523438 11.30941772460938 29.29597473144531 C 9.891448974609375 15.16578674316406 21.9571533203125 2.55316162109375 35.96805572509766 2.55316162109375 Z" stroke="none" fill="#707070"/>
    </g>
  </g>
</svg>
