<?xml version="1.0" encoding="iso-8859-1"?>
<!-- Generator: Adobe Illustrator 19.0.0, SVG Export Plug-In . SVG Version: 6.00 Build 0)  -->
<svg version="1.1" id="Layer_1" xmlns="http://www.w3.org/2000/svg" xmlns:xlink="http://www.w3.org/1999/xlink" x="0px" y="0px"
	 viewBox="0 0 512.001 512.001" style="enable-background:new 0 0 512.001 512.001;" xml:space="preserve">
<g>
	<g>
		<path d="M37.355,150.119c-5.352,0-9.705,4.347-9.705,9.69c0,5.343,4.354,9.689,9.705,9.689c5.353,0,9.706-4.347,9.706-9.689
			C47.062,154.466,42.708,150.119,37.355,150.119z"/>
	</g>
</g>
<g>
	<g>
		<path d="M511.043,302.15c-0.107-0.205-10.627-20.657-8.902-44.75c0.053-0.723,0.121-1.573,0.201-2.538
			c1.374-16.794,5.024-61.402-23.158-83.115c-17.794-13.71-44.294-14.868-78.805-3.476c-6.097-4.221-13.358-7.813-21.772-10.764
			c-36.236-12.709-68.937-4.204-97.789,3.296c-11.05,2.873-21.66,5.628-32.025,7.153c-5.049-4.417-11.694-12.062-19.22-20.726
			c-13.127-15.112-31.105-35.807-54.484-55.549C125.96,50.196,45.466,64.919,42.062,65.565c-3.98,0.757-6.861,4.238-6.861,8.289
			v12.497c-0.867-0.74-1.756-1.479-2.684-2.216c-6.838-5.427-12.915-8.797-13.169-8.938c-2.175-1.199-4.765-1.38-7.084-0.494
			c-2.319,0.885-4.131,2.746-4.952,5.088c-21.491,61.244,11.099,149.17,12.496,152.883c1.027,2.726,3.386,4.729,6.243,5.301
			c3.936,0.786,7.631,1.132,11.092,1.131c23.541-0.002,36.04-15.934,36.633-16.711c1.671-2.182,2.172-5.043,1.344-7.666
			c-0.049-0.155-4.593-15.816,4.821-30.048c6.028,7.352,13.426,19.837,12.889,36.461c-0.073,2.283-0.16,4.542-0.243,6.776
			c-1.098,29.142-2.232,59.277,28.987,76.222c5.356,2.907,11.637,18.14,13.201,52.178c0.873,18.998-0.003,37.294-0.465,44.857
			c-7.876,6.528-26.16,23.961-21.669,41.927c0.939,3.756,4.314,6.391,8.185,6.391h38.452h46.38c3.311,0,6.317-1.937,7.685-4.953
			c1.367-3.016,0.844-6.553-1.339-9.044c-6.603-7.536-2.785-18.969-2.765-19.028c0.261-0.727,0.422-1.485,0.477-2.256l8.072-113.186
			c19.174,2.42,42.159,3.427,64.736-0.179c6.713,14.22,25.293,47.405,56.163,57.066l10.307,44.189
			c-7.028,5.982-19.45,19.001-21.889,37.871c-0.31,2.406,0.43,4.83,2.032,6.652c1.602,1.821,3.911,2.866,6.337,2.866h42.092
			c2.424,0,4.729-1.066,6.331-2.887c1.602-1.821,2.34-4.267,2.032-6.672c-0.019-0.143-1.737-14.399,6.466-26.932
			c1.097-1.675,1.562-3.685,1.312-5.672l-7.555-60.187l1.974-6.96c7.993,3.261,14.648,5.322,18.755,6.459l21.939,54.581
			c-22.707,13.301-25.053,37.977-25.151,39.126c-0.198,2.352,0.599,4.679,2.197,6.417c1.597,1.738,3.85,2.727,6.211,2.727h39.369
			c4.661,0,8.437-3.778,8.437-8.437c0-12.74,9.89-22.969,9.962-23.043c1.972-1.973,2.842-4.792,2.324-7.532l-17.613-93.243
			c-0.385-2.035-1.505-3.86-3.147-5.122c-0.264-0.204-26.455-20.381-41.544-34.602c-0.827-3.141,2.726-13.941,5.096-21.142
			c4.925-14.969,11.056-33.597,8.564-51.632c-0.63-4.563-1.791-8.86-3.46-12.896c12.986,6.796,20.915,18.66,23.547,35.318
			c3.916,24.794,7.011,44.375,14.643,59.019c8.689,16.673,22.764,25.652,44.296,28.253c0.339,0.041,0.677,0.061,1.013,0.061
			c2.748,0,5.353-1.343,6.94-3.639C512.286,308.277,512.493,304.927,511.043,302.15z M369.013,432.617h-22.523
			c5.41-12.555,16.45-20.017,16.564-20.092c2.971-1.939,4.411-5.528,3.604-8.982l-12.69-54.403c-0.742-3.183-3.257-5.65-6.452-6.334
			c-24.314-5.2-40.768-31.568-47.964-45.639c7.685-2.14,15.188-4.938,22.338-8.525c9.215,14.263,22.119,26.813,38.507,37.274
			c4.133,2.638,8.237,4.975,12.231,7.066l-3.179,11.208c-0.309,1.089-0.396,2.229-0.254,3.352l7.401,58.959
			C371.147,416.025,369.437,425.728,369.013,432.617z M438.569,323.51l16.266,86.115c-3.475,4.409-8.899,12.614-10.978,22.992
			h-20.875c2.717-6.543,8.304-14.95,19.667-19.39c2.097-0.819,3.78-2.443,4.673-4.51c0.894-2.068,0.924-4.405,0.084-6.495
			l-26.466-65.845c-1.041-2.589-3.302-4.497-6.025-5.096c-0.228-0.049-23.04-5.179-45.854-19.856
			c-16.374-10.533-28.518-23.058-36.376-37.446c-0.151-0.346-0.316-0.69-0.519-1.021c-0.047-0.079-0.102-0.148-0.152-0.225
			c-5.932-11.298-9.26-23.727-9.936-37.234c-0.232-4.654-4.161-8.263-8.848-8.004c-4.654,0.232-8.237,4.194-8.004,8.848
			c0.664,13.28,3.593,25.804,8.667,37.42c-54.46,26.961-136.61,1.831-137.464,1.566c-2.513-0.787-5.248-0.359-7.399,1.163
			c-2.149,1.521-3.465,3.96-3.557,6.591l-1.843,52.488c-0.163,4.657,3.48,8.563,8.136,8.728c0.1,0.003,0.201,0.006,0.302,0.006
			c4.524,0,8.268-3.584,8.426-8.142l1.469-41.826c4.971,1.241,11.478,2.716,19.09,4.104l-8.1,113.594
			c-0.912,3.134-2.845,11.496-0.756,20.582h-25.424c0.242-3.895,1.79-8.871,7.257-12.515c2.26-1.506,3.657-4.009,3.752-6.725
			l1.823-51.913c0.164-4.656-3.48-8.563-8.136-8.728c-0.1-0.005-0.201-0.006-0.302-0.006c-4.522,0-8.268,3.584-8.426,8.141
			l-1.683,47.937c-8.123,7.055-10.837,16.173-11.132,23.807h-20.049c2.902-7.104,11.171-15.579,17.604-20.344
			c1.97-1.451,3.213-3.687,3.406-6.126c0.079-0.997,1.924-24.69,0.751-50.45c-1.71-37.56-8.91-59.274-22.014-66.389
			c-20.991-11.394-21.35-29.585-20.174-60.756c0.086-2.265,0.171-4.554,0.246-6.867c0.9-27.894-15.025-46.775-22.807-54.296
			c1.581-11.875-3.121-22.028-7.017-26.886c-2.914-3.633-8.222-4.218-11.862-1.304c-3.636,2.916-4.219,8.225-1.304,11.862
			c0.02,0.024,2.026,2.701,3.066,6.812c1.442,5.703,0.285,11.353-3.444,16.795c-10.635,15.525-9.805,31.897-8.458,40.001
			c-3.757,3.268-11.745,8.429-23.895,7.418C28.17,204.83,9.363,143.068,20.201,95.93c6.174,4.65,13.105,11.102,15.535,17.589
			c0.034,0.089,0.078,0.171,0.114,0.258c0.019,0.045,0.039,0.089,0.06,0.134c0.129,0.298,0.276,0.586,0.438,0.865
			c0.015,0.026,0.029,0.051,0.045,0.076c0.565,0.946,1.304,1.771,2.182,2.427c0.02,0.016,0.043,0.028,0.064,0.044
			c0.254,0.187,0.52,0.359,0.795,0.518c0.036,0.021,0.068,0.047,0.105,0.068c0.057,0.031,0.118,0.053,0.175,0.083
			c0.215,0.112,0.433,0.217,0.658,0.312c0.112,0.047,0.225,0.096,0.34,0.138c0.07,0.026,0.135,0.06,0.206,0.083
			c0.168,0.057,0.34,0.097,0.51,0.144c0.092,0.025,0.183,0.055,0.276,0.078c0.683,0.162,1.378,0.237,2.072,0.226
			c0.091-0.001,0.182-0.011,0.273-0.016c0.251-0.012,0.501-0.031,0.749-0.065c0.123-0.017,0.243-0.039,0.365-0.062
			c0.219-0.039,0.437-0.088,0.651-0.144c0.127-0.034,0.252-0.068,0.377-0.107c0.22-0.07,0.436-0.151,0.651-0.239
			c0.108-0.044,0.217-0.082,0.323-0.13c0.316-0.144,0.628-0.303,0.927-0.487c0.334-0.205,2.397-1.433,5.924-2.861
			c12.122-4.903,41.596-12.152,78.158,11.685c3.905,2.545,9.132,1.443,11.676-2.459c2.387-3.662,1.567-8.487-1.764-11.171
			c-0.223-0.18-0.456-0.35-0.701-0.51c-1.295-0.845-2.583-1.65-3.864-2.43c-0.358-0.217-0.712-0.417-1.069-0.63
			c-0.916-0.546-1.83-1.086-2.738-1.597c-0.453-0.255-0.902-0.496-1.353-0.744c-0.808-0.443-1.614-0.884-2.415-1.303
			c-0.482-0.252-0.96-0.492-1.439-0.735c-0.766-0.388-1.53-0.771-2.289-1.136c-0.49-0.236-0.978-0.464-1.465-0.691
			c-0.744-0.346-1.485-0.684-2.223-1.009c-0.485-0.214-0.97-0.424-1.452-0.63c-0.739-0.315-1.474-0.617-2.207-0.911
			c-0.468-0.188-0.936-0.377-1.402-0.556c-0.749-0.289-1.493-0.564-2.235-0.833c-0.439-0.159-0.879-0.322-1.314-0.474
			c-0.783-0.272-1.558-0.526-2.333-0.777c-0.386-0.125-0.775-0.258-1.159-0.377c-0.899-0.28-1.789-0.538-2.675-0.789
			c-0.25-0.071-0.503-0.15-0.751-0.218c-1.149-0.316-2.289-0.61-3.418-0.88c-0.071-0.017-0.141-0.03-0.213-0.047
			c-1.039-0.246-2.07-0.474-3.091-0.682c-0.339-0.07-0.672-0.127-1.009-0.192c-0.749-0.145-1.496-0.287-2.235-0.413
			c-0.399-0.068-0.793-0.126-1.19-0.189c-0.667-0.106-1.332-0.208-1.99-0.298c-0.42-0.057-0.834-0.108-1.25-0.159
			c-0.625-0.078-1.249-0.151-1.866-0.215c-0.423-0.044-0.843-0.083-1.262-0.122c-0.602-0.055-1.199-0.104-1.792-0.146
			c-0.416-0.03-0.83-0.059-1.242-0.082c-0.588-0.035-1.171-0.062-1.75-0.085c-0.402-0.016-0.804-0.033-1.201-0.044
			c-0.583-0.016-1.159-0.024-1.732-0.028c-0.38-0.003-0.763-0.01-1.14-0.009c-0.597,0.002-1.186,0.014-1.773,0.027
			c-0.338,0.008-0.68,0.01-1.014,0.021c-0.69,0.023-1.367,0.057-2.041,0.094c-0.221,0.012-0.446,0.019-0.665,0.033
			c-0.883,0.055-1.754,0.121-2.61,0.199c-0.261,0.024-0.513,0.054-0.771,0.08c-0.594,0.058-1.188,0.118-1.768,0.188
			c-0.339,0.041-0.667,0.087-1,0.129c-0.488,0.063-0.977,0.127-1.455,0.197c-0.355,0.052-0.702,0.108-1.052,0.164
			c-0.442,0.07-0.882,0.141-1.314,0.215c-0.355,0.062-0.704,0.126-1.053,0.191c-0.414,0.077-0.825,0.155-1.23,0.236
			c-0.345,0.07-0.687,0.139-1.027,0.211c-0.394,0.083-0.783,0.169-1.169,0.256c-0.332,0.075-0.661,0.151-0.987,0.228
			c-0.378,0.09-0.749,0.182-1.118,0.276c-0.315,0.079-0.63,0.159-0.937,0.24c-0.367,0.097-0.724,0.196-1.081,0.295
			c-0.294,0.081-0.591,0.162-0.878,0.245c-0.366,0.106-0.719,0.213-1.073,0.321c-0.261,0.079-0.528,0.156-0.783,0.236
			c-0.429,0.134-0.843,0.27-1.254,0.406c-0.163,0.054-0.335,0.107-0.495,0.161V81.132c19.611-2.446,76.724-6.45,112.124,23.442
			c22.382,18.901,39.155,38.209,52.631,53.722c3.307,3.808,6.381,7.345,9.265,10.557c-13.274-1.207-26.37-5.973-39.725-16.841
			c-0.09-0.074-0.181-0.15-0.272-0.224c-0.434-0.356-0.868-0.717-1.304-1.086c-0.204-0.173-0.408-0.352-0.613-0.529
			c-0.333-0.287-0.666-0.574-0.999-0.868c-0.29-0.257-0.581-0.522-0.871-0.784c-0.255-0.232-0.511-0.46-0.767-0.695
			c-0.359-0.331-0.719-0.672-1.079-1.012c-0.195-0.185-0.389-0.365-0.585-0.552c-0.42-0.403-0.839-0.816-1.26-1.232
			c-0.139-0.138-0.28-0.272-0.42-0.412c-0.516-0.515-1.034-1.043-1.552-1.578c-0.046-0.047-0.091-0.092-0.137-0.139
			c-0.573-0.594-1.148-1.2-1.722-1.82c-5.536-5.962-7.058-7.553-12.717-12.379c-3.546-3.025-8.872-2.601-11.894,0.944
			c-0.946,1.108-1.554,2.391-1.836,3.723c-0.01,0.049-0.015,0.1-0.025,0.15c-0.042,0.217-0.081,0.434-0.106,0.652
			c-0.303,2.692,0.694,5.481,2.91,7.372c2.125,1.812,3.529,3.045,4.853,4.308c0.033,0.031,0.068,0.063,0.1,0.094
			c1.739,1.665,3.366,3.408,6.347,6.618c14.704,15.835,29.898,25.816,46.901,30.46c7.972,2.197,15.893,3.082,23.763,3.073
			c0.024,0,0.047,0.001,0.071,0.001c0.03,0,0.061-0.001,0.091-0.001c1.032-0.003,2.063-0.018,3.094-0.051
			c0.34-0.01,0.683-0.027,1.025-0.041c0.534-0.023,1.069-0.047,1.603-0.078c0.97-0.052,1.946-0.117,2.928-0.195
			c0.011-0.001,0.024-0.002,0.035-0.003c1.797-0.141,3.607-0.31,5.448-0.535c0.073-0.009,0.141-0.031,0.213-0.043
			c12.62-1.557,25.109-4.803,37.466-8.016c27.814-7.231,56.571-14.71,87.96-3.705c6.279,2.202,13.616,5.295,19.881,10.154
			c0.439,0.447,0.927,0.839,1.453,1.178c6.18,5.223,11.08,12.34,12.454,22.286c1.956,14.165-3.268,30.04-7.878,44.049
			c-5.292,16.083-9.864,29.973-0.944,38.411C411.014,301.831,431.407,317.93,438.569,323.51z M460.281,224.53
			c-4.052-25.642-17.743-39.199-29.927-46.298c16.589-2.371,29.495-0.078,38.528,6.884c8.681,6.688,14.202,18.064,16.41,33.811
			c1.93,13.764,0.822,27.293,0.228,34.561c-0.084,1.028-0.159,1.936-0.214,2.708c-1.053,14.716,1.642,28.163,4.603,37.933
			C471.108,286.304,466.935,266.649,460.281,224.53z"/>
	</g>
</g>
<g>
</g>
<g>
</g>
<g>
</g>
<g>
</g>
<g>
</g>
<g>
</g>
<g>
</g>
<g>
</g>
<g>
</g>
<g>
</g>
<g>
</g>
<g>
</g>
<g>
</g>
<g>
</g>
<g>
</g>
</svg>
