<svg xmlns="http://www.w3.org/2000/svg" width="86" height="57.107" viewBox="0 0 86 57.107">
  <g id="mail" transform="translate(91 -276.238)">
    <g id="Path_9" data-name="Path 9" transform="translate(-91 296.395)" fill="#fff">
      <path d="M 85.5 36.45006942749023 L 0.5 36.45006942749023 L 0.5 0.8255424499511719 C 2.976361274719238 2.118248224258423 11.36059093475342 6.481206893920898 19.95656585693359 10.79794788360596 C 25.94599914550781 13.80572509765625 30.86551094055176 16.20323753356934 34.57846832275391 17.92390251159668 C 40.92874526977539 20.86674690246582 42.40754318237305 21.20985794067383 42.96746826171875 21.21194839477539 L 42.96839904785156 21.21194839477539 L 42.97259902954102 21.21195793151855 C 43.53595733642578 21.21195793151855 45.02051162719727 20.8716926574707 51.38105392456055 17.92951393127441 C 55.0997428894043 16.20936965942383 60.02571105957031 13.81162548065186 66.02210235595703 10.80288124084473 C 74.628662109375 6.484459400177002 83.02191925048828 2.118544578552246 85.5 0.8254132270812988 L 85.5 36.45006942749023 Z" stroke="none"/>
      <path d="M 85 1.649940490722656 C 81.86474609375 3.282993316650391 74.14517211914063 7.286460876464844 66.246337890625 11.24977874755859 C 45.39535140991211 21.71195411682129 43.63522338867188 21.71195411682129 42.97261047363281 21.71195411682129 L 42.96748352050781 21.71194267272949 L 42.96562194824219 21.71192932128906 C 42.30707168579102 21.7094841003418 40.55775451660156 21.70297813415527 19.73218536376953 11.24476623535156 C 11.84376525878906 7.283349990844727 4.133140563964844 3.282787322998047 1 1.650215148925781 L 1 35.9500732421875 L 85 35.9500732421875 L 85 1.649940490722656 M 0 0 C 0 0 39.4927864074707 20.69900131225586 42.96934127807617 20.71194267272949 C 42.97040176391602 20.71194648742676 42.97153854370117 20.71194839477539 42.97260665893555 20.71194839477539 C 46.4701042175293 20.71194839477539 86 0 86 0 L 86 36.9500732421875 L 0 36.9500732421875 L 0 0 Z" stroke="none" fill="#707070"/>
    </g>
    <g id="Path_10" data-name="Path 10" transform="translate(-91 276.238)" fill="#fff">
      <path d="M 43.2222785949707 37.77713394165039 C 43.02190017700195 37.77713394165039 41.89107894897461 37.55713272094727 35.75273513793945 34.72640991210938 C 31.7725658416748 32.89094543457031 26.67273330688477 30.41178894042969 21.39266586303711 27.7456226348877 C 16.00491142272949 25.02508926391602 10.98798847198486 22.39028930664063 7.266055583953857 20.32657814025879 C 1.781126737594604 17.28534507751465 0.707205593585968 16.37738037109375 0.5 16.12987899780273 L 0.5 3.092144727706909 C 0.5 1.662833690643311 2.070088863372803 0.5000002980232239 4 0.5000002980232239 L 82 0.5000002980232239 C 83.92990875244141 0.5000002980232239 85.5 1.662833690643311 85.5 3.092144727706909 L 85.5 16.13142204284668 C 85.29637908935547 16.37797927856445 84.23724365234375 17.28458213806152 78.80936431884766 20.32723426818848 C 75.12500762939453 22.39253425598145 70.16203308105469 25.02731132507324 64.83466339111328 27.74621200561523 C 59.60725402832031 30.41410064697266 54.56021118164063 32.89328765869141 50.62324523925781 34.72707748413086 C 44.54729843139648 37.55718994140625 43.42233276367188 37.77713394165039 43.2222785949707 37.77713394165039 Z" stroke="none"/>
      <path d="M 4 1.000003814697266 C 2.373832702636719 1.000003814697266 1 1.958084106445313 1 3.092144012451172 L 1 15.9174690246582 C 1.386039733886719 16.25483703613281 2.783012390136719 17.2776050567627 7.762870788574219 20.03012084960938 C 11.46453857421875 22.07614326477051 16.40811920166016 24.66935539245605 21.68292999267578 27.33206176757813 C 26.8554573059082 29.94313049316406 31.86934280395508 32.38150787353516 35.80098724365234 34.19799041748047 C 41.72430801391602 36.93468475341797 42.98917770385742 37.24222564697266 43.22208786010742 37.27511596679688 C 43.4541130065918 37.24209976196289 44.71176147460938 36.93416976928711 50.57404708862305 34.19834136962891 C 54.46276473999023 32.383544921875 59.42405700683594 29.94546127319336 64.54402160644531 27.33319091796875 C 69.75877380371094 24.67255401611328 74.64844512939453 22.07977867126465 78.31229400634766 20.03244972229004 C 83.23974609375 17.2790355682373 84.61949157714844 16.25720405578613 85 15.9207878112793 L 85 3.092144012451172 C 85 1.958084106445313 83.62616729736328 1.000003814697266 82 1.000003814697266 L 4 1.000003814697266 M 4 3.814697265625e-06 L 82 3.814697265625e-06 C 84.20914459228516 3.814697265625e-06 86 1.384403228759766 86 3.092144012451172 L 86 16.23374366760254 C 86 17.94148445129395 45.967529296875 38.27713012695313 43.22227096557617 38.27713012695313 C 40.47702407836914 38.27713012695313 0 17.94148445129395 0 16.23374366760254 L 0 3.092144012451172 C 0 1.384403228759766 1.790855407714844 3.814697265625e-06 4 3.814697265625e-06 Z" stroke="none" fill="#707070"/>
    </g>
  </g>
</svg>
