<svg id="Capa_1" enable-background="new 0 0 512 512" height="512" viewBox="0 0 512 512" width="512" xmlns="http://www.w3.org/2000/svg"><path d="m393.05 356.581c0-12.042-9.795-21.839-21.835-21.839h-2.075l-40.478-151.066c-6.53-24.373-27.104-41.3-50.688-44.43v-9.729c12.149-.746 23.114-6.933 30.056-16.529 1.519 2.177 2.85 4.502 3.95 6.968 3.492 7.858 14.109 9.144 19.387 2.438 9.106-11.511 13.451-25.914 12.231-40.557-1.323-15.861-8.873-30.103-21.261-40.101-11.598-9.361-25.966-13.785-40.741-12.615-1.464-3.126-3.229-6.105-5.412-8.863-10.931-13.821-29.612-20.258-58.789-20.258-44.76 0-69.41 24.974-69.41 70.32 0 6.573.918 13.109 2.734 19.441.444 1.538.451 3.152.066 4.709-.027.085-.048.172-.072.257-.421 1.52-1.211 2.979-2.358 4.249-21.957 24.254-31.936 57.043-28.859 94.823 3.867 47.484 28.05 96.443 64.464 132.22-6.163.534-11.539 3.862-14.832 8.722h-20.593c-12.043 0-21.84 9.797-21.84 21.84s9.797 21.84 21.84 21.84h20.593c3.599 5.312 9.682 8.81 16.568 8.81 4.729 0 9.073-1.658 12.5-4.412 3.427 2.754 7.771 4.412 12.5 4.412 6.885 0 12.969-3.498 16.568-8.81h9.981v52.32c0 20.677 16.59 37.541 37.16 38.017v5.193c0 20.981 17.069 38.05 38.05 38.05h6.609c4.143 0 7.5-3.358 7.5-7.5v-126.082h2.066l4.82 17.98c1.742 6.508 5.913 11.946 11.746 15.313 3.884 2.241 8.193 3.386 12.561 3.386 2.193 0 4.402-.289 6.577-.873 6.51-1.743 11.949-5.917 15.316-11.751 3.365-5.833 4.256-12.626 2.509-19.125l-1.854-6.92c7.513-3.456 12.745-11.05 12.745-19.848zm-73.967 6.838v-13.678h31.398c-.712 2.153-1.103 4.451-1.103 6.839s.391 4.686 1.103 6.838h-31.398zm-88.387.001v-13.68h23.387v13.68zm38.387 3.81v-21.299c0-2.757 2.243-5 5-5s5 2.243 5 5v21.299c0 2.757-2.243 5-5 5s-5-2.243-5-5zm25 0v-21.299c0-2.757 2.243-5 5-5s5 2.243 5 5v21.299c0 2.757-2.243 5-5 5s-5-2.243-5-5zm12.821-69.892c1.458 5.442-1.783 11.056-7.226 12.514-5.438 1.46-11.056-1.783-12.515-7.225l-7.24-27.02c9.874 1.55 20.232-2.904 25.66-12.172.084.047.168.094.252.141 6.04 3.346 13.007 4.072 19.621 2.046 3.171-.971 6.005-2.517 8.432-4.487l7.243 27.031c2.333 8.712-7.066 16.059-14.979 11.493-2.363-1.365-4.054-3.568-4.761-6.204-1.071-4.001-5.188-6.373-9.185-5.304-3.353.898-5.563 3.931-5.562 7.244.003.643.087 1.294.26 1.943zm64.311 66.081c-3.77 0-6.837-3.068-6.837-6.838 0-3.771 3.067-6.839 6.837-6.839 3.769 0 6.835 3.068 6.835 6.839 0 3.77-3.067 6.838-6.835 6.838zm-38.755-28.678-5.096-19.009c3.433.539 6.97.364 10.426-.563 3.457-.927 6.608-2.545 9.312-4.728l6.511 24.299h-21.153zm-58.878-267.074s.015.293.017.337c.408 10.071-1.904 20.028-6.684 28.787-2.058 3.762-3.326 8.004-3.76 12.421l-.515-.49c-19.112-18.181-41.243-15.249-43.016-15.551-14.342 0-26.009-11.667-26.009-26.009 0-14.341 11.667-26.009 26.009-26.009h25.783c15.105-.001 27.481 11.648 28.175 26.514zm4.393 46.797v-1.875c0-3.114.727-6.088 2.104-8.607 1.4-2.566 2.625-5.214 3.689-7.922 4.818 1.261 9.34 3.364 13.392 6.152-4.043 6.864-11.147 11.46-19.185 12.252zm34.942-61.056c9.167 7.399 14.755 17.938 15.733 29.674.741 8.903-1.296 17.685-5.789 25.266-7.526-12.905-20.156-22.765-35.129-26.739.757-4.671 1.048-9.433.854-14.214-.32-7.846-.836-15.836-2.323-23.443 9.695.013 18.993 3.272 26.654 9.456zm-162.49 67.405v36.718c0 4.142 3.358 7.5 7.5 7.5s7.5-3.358 7.5-7.5v-59.74c.936-3.982.869-8.156-.293-12.178-1.426-4.974-2.149-10.119-2.149-15.293 0-37.225 17.798-55.32 54.41-55.32 35.506 0 44.177 10.961 47.027 14.563.379.479.738.974 1.086 1.477-6.009-3.125-12.849-4.888-20.101-4.888h-25.783c-22.613 0-41.009 18.396-41.009 41.009s18.396 41.009 41.009 41.009c1.792.291 18.257-2.299 32.678 11.419l10.673 10.152v9.401c-2.862.339-5.733.876-8.597 1.644-6.316 1.693-12.264 4.359-17.679 7.926-3.459 2.279-4.416 6.93-2.137 10.389 2.279 3.458 6.93 4.416 10.389 2.137 4.07-2.681 8.548-4.688 13.309-5.963 24.315-6.514 49.398 7.965 55.914 32.281l13.64 50.905c1.467 5.478-1.561 11.228-6.751 12.818-2.686.824-5.512.529-7.958-.826-2.449-1.356-4.196-3.593-4.921-6.295l-8.332-31.097c-1.071-4.001-5.184-6.373-9.186-5.304-4.001 1.072-6.375 5.185-5.303 9.186l8.332 31.097c.706 2.636.344 5.39-1.021 7.754-1.365 2.363-3.568 4.054-6.205 4.76-2.634.708-5.39.345-7.753-1.021-2.363-1.364-4.054-3.568-4.76-6.203l-5.198-19.395c-1.071-4.001-5.183-6.376-9.186-5.303-4.001 1.072-6.375 5.185-5.303 9.186l5.2 19.403c.72 2.7.324 5.506-1.116 7.903-1.441 2.397-3.743 4.064-6.479 4.694-5.291 1.22-10.788-2.249-12.256-7.727l-13.64-50.904c-2.316-8.645-2.06-17.681.741-26.132 1.303-3.932-.828-8.175-4.76-9.479-3.933-1.304-8.176.829-9.479 4.76-3.725 11.24-4.068 23.25-.992 34.733l13.64 50.904c4.888 18.24 26.302 24.838 40.31 13.525l7.237 27.01c3.016 11.254 13.231 18.693 24.364 18.693 2.154 0 4.344-.279 6.521-.862 3.513-.941 6.649-2.59 9.308-4.743l4.06 15.143h-1.278c-3.599-5.312-9.682-8.811-16.568-8.811-4.729 0-9.073 1.658-12.5 4.412-3.427-2.754-7.771-4.412-12.5-4.412-6.885 0-12.969 3.498-16.568 8.81h-30.252c-3.599-5.312-9.682-8.81-16.568-8.81-1.38 0-2.727.141-4.029.408-40.661-33.787-68.223-84.669-72.221-133.758-2.252-27.678 3.254-52.181 15.983-71.765zm-8.732 235.767c0-3.771 3.068-6.84 6.84-6.84h17.161v13.68h-17.161c-3.772 0-6.84-3.068-6.84-6.84zm44.001 15.65c-2.757 0-5-2.243-5-5v-21.299c0-2.757 2.243-5 5-5s5 2.243 5 5v21.299c0 2.757-2.243 5-5 5zm25 0c-2.757 0-5-2.243-5-5v-21.299c0-2.757 2.243-5 5-5s5 2.243 5 5v21.299c0 2.757-2.243 5-5 5zm78.709 101.72v-40.76c0-4.142-3.357-7.5-7.5-7.5s-7.5 3.358-7.5 7.5v20.567c-12.299-.47-22.16-10.611-22.16-23.017v-52.32h5.27c3.599 5.312 9.682 8.81 16.568 8.81.109 0 .214-.015.322-.016v10.976c0 4.142 3.357 7.5 7.5 7.5s7.5-3.358 7.5-7.5v-13.47c2.87 1.595 6.168 2.51 9.678 2.51 4.72 0 9.057-1.653 12.481-4.398v114.151c-12.298-.469-22.159-10.621-22.159-23.033zm77.253-78.973c-1.363 2.362-3.566 4.052-6.209 4.759-2.639.709-5.393.348-7.754-1.016-2.361-1.363-4.05-3.564-4.756-6.203l-3.78-14.099h21.15l2.363 8.818c.708 2.633.348 5.381-1.014 7.741z"/><path d="m233.629 54c-4.142 0-7.5 3.358-7.5 7.5v1c0 4.142 3.358 7.5 7.5 7.5s7.5-3.358 7.5-7.5v-1c0-4.142-3.357-7.5-7.5-7.5z"/></svg>