<svg xmlns="http://www.w3.org/2000/svg" width="97.843" height="78" viewBox="0 0 97.843 78">
  <g id="user" transform="translate(-437 -266)">
    <g id="Ellipse_1" data-name="Ellipse 1" transform="translate(470 266)" fill="#fff" stroke="#707070" stroke-width="1">
      <circle cx="16" cy="16" r="16" stroke="none"/>
      <circle cx="16" cy="16" r="15.5" fill="none"/>
    </g>
    <g id="Union_2" data-name="Union 2" transform="translate(437 308.841)" fill="#fff">
      <path d="M 97.32786560058594 34.6591911315918 L 50.78908538818359 34.6591911315918 L 0.515556275844574 34.6591911315918 C 0.5752320289611816 32.99226379394531 0.8384921550750732 27.47690582275391 1.840899467468262 21.59847640991211 C 2.540211915969849 17.49744033813477 3.456599473953247 14.02696514129639 4.564587116241455 11.2834644317627 C 5.923199653625488 7.919352054595947 7.563224315643311 5.666314601898193 9.439074516296387 4.58696460723877 C 12.15913677215576 3.021739721298218 17.6667366027832 1.881877303123474 25.80888748168945 1.199014782905579 C 32.69773864746094 0.6212772727012634 40.02533721923828 0.5000022649765015 44.95937347412109 0.5000022649765015 C 46.31788635253906 0.5000022649765015 47.64861297607422 0.509077250957489 48.91461181640625 0.5269647836685181 L 48.92167282104492 0.5270647406578064 L 48.92873764038086 0.5269647836685181 C 50.1947135925293 0.509077250957489 51.52542495727539 0.5000022649765015 52.8838996887207 0.5000022649765015 C 57.81797409057617 0.5000022649765015 65.14550018310547 0.6212522387504578 72.03379821777344 1.198914766311646 C 80.17606353759766 1.881739735603333 85.68389892578125 3.021652221679688 88.40433502197266 4.58696460723877 C 91.81285858154297 6.548364639282227 94.44084930419922 12.43472766876221 96.00416564941406 21.60968971252441 C 97.00547790527344 27.4863109588623 97.26828002929688 32.99341201782227 97.32786560058594 34.6591911315918 Z" stroke="none"/>
      <path d="M 96.80769348144531 34.1591911315918 C 96.71762847900391 32.06232070922852 96.41966247558594 27.01581954956055 95.50746917724609 21.67136383056641 C 93.9696044921875 12.66111183166504 91.42713928222656 6.903284549713135 88.15496826171875 5.020351409912109 C 85.53601837158203 3.513431310653687 79.94696807861328 2.364284753799438 71.99201965332031 1.69717812538147 C 65.12097930908203 1.120951414108276 57.80844497680664 1.000004768371582 52.88392639160156 1.000004768371582 C 51.52811431884766 1.000004768371582 50.19977951049805 1.009058117866516 48.93580627441406 1.026924729347229 L 48.92167282104492 1.027111411094666 L 48.90753936767578 1.026924729347229 C 47.64419174194336 1.009058117866516 46.31583404541016 1.000004768371582 44.95935440063477 1.000004768371582 C 40.03485870361328 1.000004768371582 32.72224807739258 1.120978116989136 25.85066032409668 1.697271466255188 C 17.89581871032715 2.364418029785156 12.30703258514404 3.513511419296265 9.688446044921875 5.020351409912109 C 6.415992736816406 6.903297901153564 3.873446226119995 12.66111183166504 2.335699558258057 21.67135047912598 C 1.423574090003967 27.01580619812012 1.125713467597961 32.06232452392578 1.035699009895325 34.1591911315918 L 50.78908538818359 34.1591911315918 L 96.80769348144531 34.1591911315918 M 97.84340667724609 35.1591911315918 L 50.78908538818359 35.1591911315918 L 6.190592557686614e-06 35.1591911315918 C 6.190592557686614e-06 35.1591911315918 0.5263395309448242 9.138431549072266 9.189712524414063 4.153591632843018 C 15.56642436981201 0.4841806888580322 35.09611511230469 4.703165814134991e-06 44.95935821533203 4.703165814134991e-06 C 46.57171249389648 4.703165814134991e-06 47.92562484741211 0.01294156815856695 48.92167282104492 0.02701808884739876 C 49.91727066040039 0.01294768322259188 51.27251434326172 4.703165814134991e-06 52.88391876220703 4.703165814134991e-06 C 62.74633407592773 4.703165814134991e-06 82.27603149414063 0.4839201271533966 88.65370178222656 4.153591632843018 C 97.31640625 9.138431549072266 97.84340667724609 35.1591911315918 97.84340667724609 35.1591911315918 Z" stroke="none" fill="#707070"/>
    </g>
  </g>
</svg>
